<svg xmlns="http://www.w3.org/2000/svg" viewBox="0 0 26 31" width="26" height="31">
	<style>
		tspan { white-space:pre }
		.shp0 { fill: #000000 } 
	</style>
	<g id="Header">
		<g id="header__basket">
			<path id="icon__basket" class="shp0" d="M23.18 31L2.81 31C1.97 31 1.17 30.62 0.64 29.97C0.1 29.32 -0.11 28.46 0.05 27.63L1.91 10.65C2.19 9.26 3.35 8.3 4.68 8.3L21.31 8.3C22.65 8.3 23.8 9.25 24.07 10.56L25.95 27.72C26.1 28.46 25.89 29.32 25.36 29.97C24.82 30.62 24.03 31 23.18 31ZM21.31 10.24L4.68 10.24C4.27 10.24 3.91 10.54 3.82 10.95L1.97 27.93C1.88 28.37 2.04 28.62 2.13 28.74C2.23 28.86 2.45 29.06 2.81 29.06L23.18 29.06C23.55 29.06 23.76 28.86 23.86 28.74C23.96 28.62 24.11 28.37 24.04 28.01L22.16 10.86C22.09 10.54 21.73 10.24 21.31 10.24ZM19.21 14.49C18.74 14.49 18.33 14.15 18.26 13.67L16.66 3.29C16.49 2.53 15.76 1.94 14.92 1.94L11.08 1.94C10.24 1.94 9.5 2.53 9.32 3.35L7.74 13.67C7.66 14.2 7.16 14.56 6.63 14.48C6.11 14.4 5.74 13.91 5.83 13.38L7.42 3C7.81 1.23 9.34 0 11.08 0L14.92 0C16.66 0 18.19 1.23 18.56 2.94L20.17 13.38C20.25 13.91 19.89 14.4 19.36 14.48C19.31 14.49 19.26 14.49 19.21 14.49Z" />
		</g>
	</g>
</svg>