<svg xmlns="http://www.w3.org/2000/svg" viewBox="0 0 12 13" width="12" height="13">
	<style>
		tspan { white-space:pre }
		.shp0 { fill: #ea2260 } 
	</style>
	<g id="Header">
		<g id="header__top 1 copy">
			<g id="icons">
				<path id="Forma 1" class="shp0" d="M4.19 6.88L5.35 6.88C5.86 6.88 6.36 7 6.84 7.24L7.24 6.43C6.64 6.14 6 5.98 5.35 5.98L4.19 5.98C1.88 5.98 0 7.85 0 10.14L0 11.19C0 11.44 0.2 11.64 0.45 11.64L5.95 11.64L5.95 10.74L0.9 10.74L0.9 10.14C0.9 8.34 2.38 6.88 4.19 6.88ZM4.76 0C3.23 0 1.99 1.23 1.99 2.75C1.99 4.27 3.23 5.5 4.76 5.5C6.29 5.5 7.54 4.27 7.54 2.75C7.54 1.23 6.29 0 4.76 0ZM4.76 4.61C3.73 4.61 2.89 3.78 2.89 2.75C2.89 1.73 3.73 0.9 4.76 0.9C5.79 0.9 6.63 1.73 6.63 2.75C6.63 3.78 5.79 4.61 4.76 4.61ZM8.5 6.06C6.57 6.06 5 7.62 5 9.53C5 11.44 6.57 13 8.5 13C10.43 13 12 11.44 12 9.53C12 7.62 10.43 6.06 8.5 6.06ZM8.5 12.1C7.07 12.1 5.91 10.95 5.91 9.53C5.91 8.11 7.07 6.96 8.5 6.96C9.93 6.96 11.1 8.11 11.1 9.53C11.1 10.95 9.93 12.1 8.5 12.1ZM8.5 7.84C8.25 7.84 8.05 8.04 8.05 8.29L8.05 10.77C8.05 11.02 8.25 11.22 8.5 11.22C8.75 11.22 8.95 11.02 8.95 10.77L8.95 8.29C8.95 8.04 8.75 7.84 8.5 7.84ZM9.75 9.08L7.25 9.08C7 9.08 6.8 9.28 6.8 9.53C6.8 9.78 7 9.98 7.25 9.98L9.75 9.98C10 9.98 10.21 9.78 10.21 9.53C10.21 9.28 10 9.08 9.75 9.08Z" />
			</g>
		</g>
	</g>
</svg>