<svg xmlns="http://www.w3.org/2000/svg" viewBox="0 0 12 12" width="12" height="12">
	<style>
		tspan { white-space:pre }
		.shp0 { fill: #ea2260 } 
	</style>
	<g id="Header">
		<g id="header__top 1 copy">
			<g id="icons">
				<path id="Forma 1" class="shp0" d="M11.64 9.01L9.91 7.27C9.68 7.03 9.37 6.9 9.03 6.9C8.69 6.9 8.36 7.04 8.11 7.29L7.44 7.97C6.91 7.68 6.22 7.27 5.49 6.55C4.77 5.82 4.37 5.12 4.08 4.59L4.75 3.91C5.26 3.41 5.27 2.6 4.78 2.1L3.04 0.36C2.81 0.13 2.5 0 2.17 0C1.83 0 1.51 0.13 1.26 0.37C1.11 0.49 0.37 1.15 0.09 2.52C-0.3 4.43 0.59 6.27 3.18 8.87C6.06 11.77 8.53 12 9.22 12C9.36 12 9.45 11.99 9.47 11.99C10.81 11.83 11.3 11.23 11.65 10.79C12.11 10.22 12.1 9.47 11.64 9.01ZM11.07 10.32C10.74 10.73 10.43 11.12 9.38 11.25C9.38 11.25 9.32 11.25 9.22 11.25C8.6 11.25 6.39 11.04 3.7 8.34C1.32 5.95 0.48 4.3 0.82 2.67C1.06 1.48 1.7 0.97 1.73 0.95L1.75 0.93L1.77 0.92C1.88 0.81 2.02 0.75 2.17 0.75C2.3 0.75 2.43 0.8 2.52 0.89L4.25 2.63C4.45 2.83 4.44 3.17 4.23 3.38L3.46 4.15L3.45 4.16C3.25 4.38 3.28 4.68 3.38 4.88C3.7 5.45 4.13 6.24 4.97 7.07C5.8 7.91 6.58 8.35 7.15 8.66C7.21 8.7 7.32 8.75 7.47 8.75C7.64 8.75 7.8 8.67 7.92 8.54L8.64 7.82C8.75 7.71 8.89 7.65 9.03 7.65C9.17 7.65 9.29 7.7 9.39 7.8L11.12 9.54C11.34 9.76 11.25 10.1 11.07 10.32ZM7.26 1.83C7.9 1.91 8.66 2.3 9.18 2.82C9.71 3.36 10.1 4.12 10.17 4.77C10.19 4.96 10.35 5.1 10.54 5.1C10.55 5.1 10.57 5.1 10.58 5.1C10.78 5.08 10.93 4.9 10.91 4.69C10.82 3.87 10.36 2.95 9.71 2.29C9.06 1.64 8.16 1.18 7.35 1.09C7.14 1.07 6.96 1.21 6.94 1.42C6.91 1.62 7.06 1.81 7.26 1.83ZM6.92 3.4C7.26 3.44 7.74 3.7 8.05 4.01C8.37 4.33 8.63 4.82 8.66 5.17C8.69 5.36 8.85 5.5 9.03 5.5C9.05 5.5 9.06 5.5 9.07 5.5C9.28 5.48 9.43 5.29 9.4 5.09C9.34 4.49 8.94 3.85 8.58 3.48C8.22 3.12 7.59 2.72 7 2.66C6.8 2.63 6.61 2.78 6.59 2.98C6.57 3.19 6.71 3.38 6.92 3.4Z" />
			</g>
		</g>
	</g>
</svg>