<svg xmlns="http://www.w3.org/2000/svg" viewBox="0 0 15 15" width="15" height="15">
	<style>
		tspan { white-space:pre }
		.shp0 { fill: #ecc7d0 } 
	</style>
	<g id="Header">
		<g id="header__search">
			<path id="icon__lens" class="shp0" d="M10.01 1.71C7.72 -0.58 4 -0.58 1.71 1.71C-0.58 4 -0.58 7.72 1.71 10.01C3.75 12.05 6.92 12.27 9.21 10.68C9.26 10.9 9.37 11.12 9.54 11.3L12.88 14.63C13.36 15.12 14.15 15.12 14.63 14.63C15.12 14.15 15.12 13.36 14.63 12.88L11.3 9.54C11.12 9.37 10.9 9.26 10.68 9.21C12.27 6.92 12.05 3.75 10.01 1.71ZM8.96 8.96C7.25 10.67 4.47 10.67 2.76 8.96C1.05 7.25 1.05 4.47 2.76 2.76C4.47 1.05 7.25 1.05 8.96 2.76C10.67 4.47 10.67 7.25 8.96 8.96Z" />
		</g>
	</g>
</svg>