<svg xmlns="http://www.w3.org/2000/svg" viewBox="0 0 9 12" width="9" height="12">
	<style>
		tspan { white-space:pre }
		.shp0 { fill: #ea2260 } 
	</style>
	<g id="Header">
		<g id="header__top 1 copy">
			<g id="icons">
				<path id="Forma 1" class="shp0" d="M7.68 4.41L6.88 4.41L6.88 2.48C6.88 1.11 5.81 0 4.5 0C3.19 0 2.12 1.11 2.12 2.48L2.12 4.41L1.32 4.41C0.59 4.41 0 5.04 0 5.81L0 10.59C0 11.37 0.59 12 1.32 12L7.68 12C8.41 12 9 11.37 9 10.59L9 5.81C9 5.04 8.41 4.41 7.68 4.41ZM3 2.48C3 1.63 3.67 0.94 4.5 0.94C5.33 0.94 6 1.63 6 2.48L6 4.41L3 4.41L3 2.48L3 2.48ZM8.12 10.59C8.12 10.85 7.92 11.06 7.68 11.06L1.32 11.06C1.08 11.06 0.88 10.85 0.88 10.59L0.88 5.81C0.88 5.55 1.08 5.34 1.32 5.34L7.68 5.34C7.92 5.34 8.12 5.55 8.12 5.81L8.12 10.59ZM4.5 6.7C4.05 6.7 3.68 7.09 3.68 7.57C3.68 7.88 3.83 8.14 4.06 8.3L4.06 9.33C4.06 9.59 4.26 9.8 4.5 9.8C4.74 9.8 4.94 9.59 4.94 9.33L4.94 8.3C5.17 8.15 5.32 7.88 5.32 7.57C5.32 7.09 4.95 6.7 4.5 6.7Z" />
			</g>
		</g>
	</g>
</svg>